<svg xmlns="http://www.w3.org/2000/svg" width="187.63" height="30.86" viewBox="0 0 187.63 30.86"><defs><style>.a{fill:#d9e021;}.b{fill:none;stroke:#d9e021;stroke-miterlimit:10;}.c{fill:#999;}</style></defs><ellipse class="a" cx="7.74" cy="22.95" rx="7.74" ry="7.91"/><ellipse class="a" cx="16.77" cy="4.9" rx="4.8" ry="4.9"/><ellipse class="a" cx="22.26" cy="19.37" rx="2.76" ry="2.82"/><ellipse class="a" cx="34.29" cy="10.34" rx="5.36" ry="5.47"/><ellipse class="a" cx="40.31" cy="20.87" rx="5.36" ry="5.47"/><polyline class="b" points="7.74 22.95 15.99 3.78 22.26 19.37 33.85 10.34 39.65 20.87"/><path class="c" d="M57.57,18.8v8H54.86V6.31H85A7.63,7.63,0,0,1,90.28,8a5.86,5.86,0,0,1,1.91,4.56,5.74,5.74,0,0,1-1.87,4.6A7.92,7.92,0,0,1,85,18.8Zm0-2.21H85a4.88,4.88,0,0,0,3.33-1,3.76,3.76,0,0,0,1.15-3,3.86,3.86,0,0,0-1.15-2.94,4.54,4.54,0,0,0-3.17-1.14H57.57Z"/><path class="c" d="M94.55,19.07a9,9,0,0,1,.88-4,6.47,6.47,0,0,1,2.45-2.76,6.67,6.67,0,0,1,3.59-1,6.42,6.42,0,0,1,5,2.16,8.31,8.31,0,0,1,1.92,5.74v.18a9.07,9.07,0,0,1-.85,4,6.49,6.49,0,0,1-2.44,2.76,6.82,6.82,0,0,1-3.64,1,6.44,6.44,0,0,1-5-2.15,8.29,8.29,0,0,1-1.92-5.71Zm2.62.31a6.53,6.53,0,0,0,1.18,4.08,4,4,0,0,0,6.31,0,7.16,7.16,0,0,0,1.17-4.37,6.5,6.5,0,0,0-1.2-4.07,3.8,3.8,0,0,0-3.16-1.55A3.76,3.76,0,0,0,98.35,15,7.09,7.09,0,0,0,97.17,19.38Z"/><path class="c" d="M119.08,13.93a7.39,7.39,0,0,0-1.28-.1A3.45,3.45,0,0,0,114.31,16V26.84h-2.6V11.59h2.53l.05,1.76a4.05,4.05,0,0,1,3.63-2,2.69,2.69,0,0,1,1.16.2Z"/><path class="c" d="M125,7.89v3.7h2.84v2H125v9.47a2.07,2.07,0,0,0,.38,1.38,1.57,1.57,0,0,0,1.29.46,6.49,6.49,0,0,0,1.24-.17v2.1a7.42,7.42,0,0,1-2,.28,3.25,3.25,0,0,1-2.63-1.05,4.52,4.52,0,0,1-.89-3V13.6h-2.78v-2h2.78V7.89Z"/><path class="c" d="M132.19,26.84V13.6h-2.41v-2h2.41V10a5.21,5.21,0,0,1,1.31-3.79,4.94,4.94,0,0,1,3.71-1.34,6.83,6.83,0,0,1,1.79.24l-.14,2.1a7,7,0,0,0-1.41-.13,2.57,2.57,0,0,0-2,.74A3,3,0,0,0,134.8,10v1.62h22.82v2H134.8V26.84Z"/><path class="c" d="M147.77,21.37a6.41,6.41,0,0,1,.63-2.88,4.64,4.64,0,0,1,1.75-2,4.8,4.8,0,0,1,2.57-.69,4.6,4.6,0,0,1,3.6,1.54,5.91,5.91,0,0,1,1.37,4.1v.13a6.49,6.49,0,0,1-.61,2.86,4.57,4.57,0,0,1-1.74,2,4.82,4.82,0,0,1-2.6.7,4.6,4.6,0,0,1-3.6-1.54,5.94,5.94,0,0,1-1.37-4.08Zm1.87.22a4.66,4.66,0,0,0,.84,2.91,2.85,2.85,0,0,0,4.51,0,5.08,5.08,0,0,0,.84-3.12,4.64,4.64,0,0,0-.85-2.91,2.71,2.71,0,0,0-2.26-1.11,2.65,2.65,0,0,0-2.23,1.1A5,5,0,0,0,149.64,21.59Z"/><path class="c" d="M163.25,26.84h-2.61V5.18h2.61Z"/><path class="c" d="M167.43,7.54a1.55,1.55,0,0,1,.39-1.07A1.46,1.46,0,0,1,169,6a1.5,1.5,0,0,1,1.16.44,1.55,1.55,0,0,1,.39,1.07,1.53,1.53,0,0,1-.39,1.06A1.53,1.53,0,0,1,169,9a1.49,1.49,0,0,1-1.15-.42A1.53,1.53,0,0,1,167.43,7.54Zm2.82,19.3h-2.6V11.59h2.6Z"/><path class="c" d="M173.74,19.07a9,9,0,0,1,.88-4,6.47,6.47,0,0,1,2.45-2.76,6.69,6.69,0,0,1,3.59-1,6.42,6.42,0,0,1,5,2.16,8.31,8.31,0,0,1,1.92,5.74v.18a9.07,9.07,0,0,1-.85,4,6.49,6.49,0,0,1-2.44,2.76,6.82,6.82,0,0,1-3.64,1,6.44,6.44,0,0,1-5-2.15,8.29,8.29,0,0,1-1.92-5.71Zm2.62.31a6.53,6.53,0,0,0,1.18,4.08,4,4,0,0,0,6.31,0A7.16,7.16,0,0,0,185,19.07,6.56,6.56,0,0,0,183.83,15a3.81,3.81,0,0,0-3.17-1.55A3.76,3.76,0,0,0,177.54,15,7.09,7.09,0,0,0,176.36,19.38Z"/></svg>